<mxfile host="Electron" agent="Mozilla/5.0 (Windows NT 10.0; Win64; x64) AppleWebKit/537.36 (KHTML, like Gecko) draw.io/24.7.5 Chrome/126.0.6478.183 Electron/31.3.0 Safari/537.36" version="24.7.5">
  <diagram name="Page-1" id="e7e014a7-5840-1c2e-5031-d8a46d1fe8dd">
    <mxGraphModel dx="1276" dy="678" grid="1" gridSize="10" guides="1" tooltips="1" connect="1" arrows="1" fold="1" page="1" pageScale="1" pageWidth="1169" pageHeight="826" background="none" math="0" shadow="0">
      <root>
        <mxCell id="0" />
        <mxCell id="1" parent="0" />
        <mxCell id="VBHw-t9jweBzC9gY2SZ8-41" value="Product" style="swimlane;fontStyle=1;align=center;verticalAlign=top;childLayout=stackLayout;horizontal=1;startSize=26;horizontalStack=0;resizeParent=1;resizeParentMax=0;resizeLast=0;collapsible=1;marginBottom=0;whiteSpace=wrap;html=1;" parent="1" vertex="1">
          <mxGeometry x="110" y="200" width="160" height="250" as="geometry" />
        </mxCell>
        <mxCell id="VBHw-t9jweBzC9gY2SZ8-42" value="&lt;div&gt;+Name(string)&lt;div&gt;+Description(string)&lt;/div&gt;&lt;div&gt;+Price(double)&lt;/div&gt;&lt;/div&gt;&lt;div&gt;+Quantity(int)&lt;/div&gt;&lt;div&gt;+lineSeparator(String)&lt;/div&gt;" style="text;strokeColor=none;fillColor=none;align=left;verticalAlign=top;spacingLeft=4;spacingRight=4;overflow=hidden;rotatable=0;points=[[0,0.5],[1,0.5]];portConstraint=eastwest;whiteSpace=wrap;html=1;" parent="VBHw-t9jweBzC9gY2SZ8-41" vertex="1">
          <mxGeometry y="26" width="160" height="94" as="geometry" />
        </mxCell>
        <mxCell id="VBHw-t9jweBzC9gY2SZ8-43" value="" style="line;strokeWidth=1;fillColor=none;align=left;verticalAlign=middle;spacingTop=-1;spacingLeft=3;spacingRight=3;rotatable=0;labelPosition=right;points=[];portConstraint=eastwest;strokeColor=inherit;" parent="VBHw-t9jweBzC9gY2SZ8-41" vertex="1">
          <mxGeometry y="120" width="160" height="8" as="geometry" />
        </mxCell>
        <mxCell id="VBHw-t9jweBzC9gY2SZ8-44" value="+ constructor(int, string, string, double, int)&lt;div&gt;+toString(): void&lt;/div&gt;&lt;div&gt;+reduceQuantity(): void&lt;/div&gt;&lt;div&gt;+increaseQuantity(): void&lt;/div&gt;&lt;div&gt;+compareTo(Product)&lt;/div&gt;&lt;div&gt;+onSale(String)&lt;/div&gt;&lt;div&gt;&lt;br&gt;&lt;/div&gt;&lt;div&gt;&lt;br&gt;&lt;/div&gt;&lt;div&gt;&lt;br&gt;&lt;/div&gt;" style="text;strokeColor=none;fillColor=none;align=left;verticalAlign=top;spacingLeft=4;spacingRight=4;overflow=hidden;rotatable=0;points=[[0,0.5],[1,0.5]];portConstraint=eastwest;whiteSpace=wrap;html=1;" parent="VBHw-t9jweBzC9gY2SZ8-41" vertex="1">
          <mxGeometry y="128" width="160" height="122" as="geometry" />
        </mxCell>
        <mxCell id="VBHw-t9jweBzC9gY2SZ8-49" style="edgeStyle=orthogonalEdgeStyle;rounded=0;orthogonalLoop=1;jettySize=auto;html=1;exitX=0.5;exitY=0;exitDx=0;exitDy=0;" parent="1" source="VBHw-t9jweBzC9gY2SZ8-45" edge="1">
          <mxGeometry relative="1" as="geometry">
            <mxPoint x="575" y="70" as="targetPoint" />
          </mxGeometry>
        </mxCell>
        <mxCell id="VBHw-t9jweBzC9gY2SZ8-45" value="Weapon" style="swimlane;fontStyle=1;align=center;verticalAlign=top;childLayout=stackLayout;horizontal=1;startSize=26;horizontalStack=0;resizeParent=1;resizeParentMax=0;resizeLast=0;collapsible=1;marginBottom=0;whiteSpace=wrap;html=1;" parent="1" vertex="1">
          <mxGeometry x="500" y="60" width="150" height="170" as="geometry" />
        </mxCell>
        <mxCell id="VBHw-t9jweBzC9gY2SZ8-46" value="&lt;div&gt;+Name(string)&lt;div&gt;+Description(string)&lt;/div&gt;&lt;div&gt;+Price(double)&lt;/div&gt;&lt;/div&gt;&lt;div&gt;+Quantity(int)&lt;/div&gt;&lt;div&gt;+lineSeparator(String)&lt;/div&gt;" style="text;strokeColor=none;fillColor=none;align=left;verticalAlign=top;spacingLeft=4;spacingRight=4;overflow=hidden;rotatable=0;points=[[0,0.5],[1,0.5]];portConstraint=eastwest;whiteSpace=wrap;html=1;" parent="VBHw-t9jweBzC9gY2SZ8-45" vertex="1">
          <mxGeometry y="26" width="150" height="84" as="geometry" />
        </mxCell>
        <mxCell id="VBHw-t9jweBzC9gY2SZ8-47" value="" style="line;strokeWidth=1;fillColor=none;align=left;verticalAlign=middle;spacingTop=-1;spacingLeft=3;spacingRight=3;rotatable=0;labelPosition=right;points=[];portConstraint=eastwest;strokeColor=inherit;" parent="VBHw-t9jweBzC9gY2SZ8-45" vertex="1">
          <mxGeometry y="110" width="150" height="8" as="geometry" />
        </mxCell>
        <mxCell id="VBHw-t9jweBzC9gY2SZ8-48" value="+ constructor(int, string, string, double, int)&lt;div&gt;+onSale(String)&lt;br&gt;&lt;div&gt;&lt;br&gt;&lt;/div&gt;&lt;div&gt;&lt;br&gt;&lt;/div&gt;&lt;div&gt;&lt;br&gt;&lt;/div&gt;&lt;div&gt;&lt;br&gt;&lt;/div&gt;&lt;/div&gt;" style="text;strokeColor=none;fillColor=none;align=left;verticalAlign=top;spacingLeft=4;spacingRight=4;overflow=hidden;rotatable=0;points=[[0,0.5],[1,0.5]];portConstraint=eastwest;whiteSpace=wrap;html=1;" parent="VBHw-t9jweBzC9gY2SZ8-45" vertex="1">
          <mxGeometry y="118" width="150" height="52" as="geometry" />
        </mxCell>
        <mxCell id="VBHw-t9jweBzC9gY2SZ8-50" style="edgeStyle=orthogonalEdgeStyle;rounded=0;orthogonalLoop=1;jettySize=auto;html=1;exitX=0.5;exitY=0;exitDx=0;exitDy=0;" parent="1" source="VBHw-t9jweBzC9gY2SZ8-51" edge="1">
          <mxGeometry relative="1" as="geometry">
            <mxPoint x="575" y="290" as="targetPoint" />
          </mxGeometry>
        </mxCell>
        <mxCell id="VBHw-t9jweBzC9gY2SZ8-51" value="Armor" style="swimlane;fontStyle=1;align=center;verticalAlign=top;childLayout=stackLayout;horizontal=1;startSize=26;horizontalStack=0;resizeParent=1;resizeParentMax=0;resizeLast=0;collapsible=1;marginBottom=0;whiteSpace=wrap;html=1;" parent="1" vertex="1">
          <mxGeometry x="500" y="280" width="150" height="180" as="geometry" />
        </mxCell>
        <mxCell id="VBHw-t9jweBzC9gY2SZ8-52" value="&lt;div&gt;+Name(string)&lt;div&gt;+Description(string)&lt;/div&gt;&lt;div&gt;+Price(double)&lt;/div&gt;&lt;/div&gt;&lt;div&gt;+Quantity(int)&lt;/div&gt;&lt;div&gt;+lineSeparator(String)&lt;/div&gt;&lt;div&gt;&lt;br&gt;&lt;/div&gt;" style="text;strokeColor=none;fillColor=none;align=left;verticalAlign=top;spacingLeft=4;spacingRight=4;overflow=hidden;rotatable=0;points=[[0,0.5],[1,0.5]];portConstraint=eastwest;whiteSpace=wrap;html=1;" parent="VBHw-t9jweBzC9gY2SZ8-51" vertex="1">
          <mxGeometry y="26" width="150" height="94" as="geometry" />
        </mxCell>
        <mxCell id="VBHw-t9jweBzC9gY2SZ8-53" value="" style="line;strokeWidth=1;fillColor=none;align=left;verticalAlign=middle;spacingTop=-1;spacingLeft=3;spacingRight=3;rotatable=0;labelPosition=right;points=[];portConstraint=eastwest;strokeColor=inherit;" parent="VBHw-t9jweBzC9gY2SZ8-51" vertex="1">
          <mxGeometry y="120" width="150" height="8" as="geometry" />
        </mxCell>
        <mxCell id="VBHw-t9jweBzC9gY2SZ8-54" value="+ constructor(int, string, string, double, int)&lt;div&gt;+onSale(String)&lt;br&gt;&lt;div&gt;&lt;br&gt;&lt;/div&gt;&lt;div&gt;&lt;br&gt;&lt;/div&gt;&lt;div&gt;&lt;br&gt;&lt;/div&gt;&lt;div&gt;&lt;br&gt;&lt;/div&gt;&lt;div&gt;&lt;br&gt;&lt;/div&gt;&lt;/div&gt;" style="text;strokeColor=none;fillColor=none;align=left;verticalAlign=top;spacingLeft=4;spacingRight=4;overflow=hidden;rotatable=0;points=[[0,0.5],[1,0.5]];portConstraint=eastwest;whiteSpace=wrap;html=1;" parent="VBHw-t9jweBzC9gY2SZ8-51" vertex="1">
          <mxGeometry y="128" width="150" height="52" as="geometry" />
        </mxCell>
        <mxCell id="VBHw-t9jweBzC9gY2SZ8-55" style="edgeStyle=orthogonalEdgeStyle;rounded=0;orthogonalLoop=1;jettySize=auto;html=1;exitX=0.5;exitY=0;exitDx=0;exitDy=0;" parent="1" source="VBHw-t9jweBzC9gY2SZ8-56" edge="1">
          <mxGeometry relative="1" as="geometry">
            <mxPoint x="575" y="500" as="targetPoint" />
          </mxGeometry>
        </mxCell>
        <mxCell id="VBHw-t9jweBzC9gY2SZ8-56" value="Health" style="swimlane;fontStyle=1;align=center;verticalAlign=top;childLayout=stackLayout;horizontal=1;startSize=26;horizontalStack=0;resizeParent=1;resizeParentMax=0;resizeLast=0;collapsible=1;marginBottom=0;whiteSpace=wrap;html=1;" parent="1" vertex="1">
          <mxGeometry x="500" y="490" width="150" height="180" as="geometry" />
        </mxCell>
        <mxCell id="VBHw-t9jweBzC9gY2SZ8-57" value="&lt;div&gt;+Name(string)&lt;div&gt;+Description(string)&lt;/div&gt;&lt;div&gt;+Price(double)&lt;/div&gt;&lt;/div&gt;&lt;div&gt;+Quantity(int)&lt;/div&gt;&lt;div&gt;+lineSeparator(String)&lt;/div&gt;" style="text;strokeColor=none;fillColor=none;align=left;verticalAlign=top;spacingLeft=4;spacingRight=4;overflow=hidden;rotatable=0;points=[[0,0.5],[1,0.5]];portConstraint=eastwest;whiteSpace=wrap;html=1;" parent="VBHw-t9jweBzC9gY2SZ8-56" vertex="1">
          <mxGeometry y="26" width="150" height="94" as="geometry" />
        </mxCell>
        <mxCell id="VBHw-t9jweBzC9gY2SZ8-58" value="" style="line;strokeWidth=1;fillColor=none;align=left;verticalAlign=middle;spacingTop=-1;spacingLeft=3;spacingRight=3;rotatable=0;labelPosition=right;points=[];portConstraint=eastwest;strokeColor=inherit;" parent="VBHw-t9jweBzC9gY2SZ8-56" vertex="1">
          <mxGeometry y="120" width="150" height="8" as="geometry" />
        </mxCell>
        <mxCell id="VBHw-t9jweBzC9gY2SZ8-59" value="+ constructor(int, string, string, double, int)&lt;div&gt;+onSale(String)&lt;br&gt;&lt;div&gt;&lt;br&gt;&lt;/div&gt;&lt;div&gt;&lt;br&gt;&lt;/div&gt;&lt;div&gt;&lt;br&gt;&lt;/div&gt;&lt;div&gt;&lt;br&gt;&lt;/div&gt;&lt;div&gt;&lt;br&gt;&lt;/div&gt;&lt;/div&gt;" style="text;strokeColor=none;fillColor=none;align=left;verticalAlign=top;spacingLeft=4;spacingRight=4;overflow=hidden;rotatable=0;points=[[0,0.5],[1,0.5]];portConstraint=eastwest;whiteSpace=wrap;html=1;" parent="VBHw-t9jweBzC9gY2SZ8-56" vertex="1">
          <mxGeometry y="128" width="150" height="52" as="geometry" />
        </mxCell>
        <mxCell id="VBHw-t9jweBzC9gY2SZ8-63" value="" style="endArrow=none;html=1;edgeStyle=orthogonalEdgeStyle;rounded=0;exitX=1.033;exitY=0.989;exitDx=0;exitDy=0;exitPerimeter=0;" parent="1" edge="1">
          <mxGeometry relative="1" as="geometry">
            <mxPoint x="270" y="272.766" as="sourcePoint" />
            <mxPoint x="490" y="110" as="targetPoint" />
            <Array as="points">
              <mxPoint x="270" y="274" />
              <mxPoint x="380" y="274" />
              <mxPoint x="380" y="110" />
              <mxPoint x="491" y="110" />
            </Array>
          </mxGeometry>
        </mxCell>
        <mxCell id="VBHw-t9jweBzC9gY2SZ8-64" value="parent" style="edgeLabel;resizable=0;html=1;align=left;verticalAlign=bottom;" parent="VBHw-t9jweBzC9gY2SZ8-63" connectable="0" vertex="1">
          <mxGeometry x="-1" relative="1" as="geometry" />
        </mxCell>
        <mxCell id="VBHw-t9jweBzC9gY2SZ8-65" value="child" style="edgeLabel;resizable=0;html=1;align=right;verticalAlign=bottom;" parent="VBHw-t9jweBzC9gY2SZ8-63" connectable="0" vertex="1">
          <mxGeometry x="1" relative="1" as="geometry" />
        </mxCell>
        <mxCell id="VBHw-t9jweBzC9gY2SZ8-66" value="" style="endArrow=none;html=1;edgeStyle=orthogonalEdgeStyle;rounded=0;entryX=-0.011;entryY=0.589;entryDx=0;entryDy=0;entryPerimeter=0;" parent="1" target="VBHw-t9jweBzC9gY2SZ8-52" edge="1">
          <mxGeometry relative="1" as="geometry">
            <mxPoint x="270" y="320" as="sourcePoint" />
            <mxPoint x="483.54999999999995" y="363.80999999999995" as="targetPoint" />
            <Array as="points">
              <mxPoint x="270" y="321" />
              <mxPoint x="381" y="321" />
              <mxPoint x="381" y="364" />
              <mxPoint x="498" y="364" />
            </Array>
          </mxGeometry>
        </mxCell>
        <mxCell id="VBHw-t9jweBzC9gY2SZ8-67" value="parent" style="edgeLabel;resizable=0;html=1;align=left;verticalAlign=bottom;" parent="VBHw-t9jweBzC9gY2SZ8-66" connectable="0" vertex="1">
          <mxGeometry x="-1" relative="1" as="geometry" />
        </mxCell>
        <mxCell id="VBHw-t9jweBzC9gY2SZ8-68" value="child" style="edgeLabel;resizable=0;html=1;align=right;verticalAlign=bottom;" parent="VBHw-t9jweBzC9gY2SZ8-66" connectable="0" vertex="1">
          <mxGeometry x="1" relative="1" as="geometry" />
        </mxCell>
        <mxCell id="VBHw-t9jweBzC9gY2SZ8-69" value="" style="endArrow=none;html=1;edgeStyle=orthogonalEdgeStyle;rounded=0;entryX=-0.043;entryY=0.5;entryDx=0;entryDy=0;entryPerimeter=0;" parent="1" target="VBHw-t9jweBzC9gY2SZ8-57" edge="1">
          <mxGeometry relative="1" as="geometry">
            <mxPoint x="270" y="390" as="sourcePoint" />
            <mxPoint x="430" y="530" as="targetPoint" />
            <Array as="points">
              <mxPoint x="430" y="390" />
              <mxPoint x="430" y="563" />
            </Array>
          </mxGeometry>
        </mxCell>
        <mxCell id="VBHw-t9jweBzC9gY2SZ8-70" value="parent" style="edgeLabel;resizable=0;html=1;align=left;verticalAlign=bottom;" parent="VBHw-t9jweBzC9gY2SZ8-69" connectable="0" vertex="1">
          <mxGeometry x="-1" relative="1" as="geometry" />
        </mxCell>
        <mxCell id="VBHw-t9jweBzC9gY2SZ8-71" value="child" style="edgeLabel;resizable=0;html=1;align=right;verticalAlign=bottom;" parent="VBHw-t9jweBzC9gY2SZ8-69" connectable="0" vertex="1">
          <mxGeometry x="1" relative="1" as="geometry" />
        </mxCell>
        <mxCell id="I_dA96z9081tKMaYeLAS-1" value="&lt;i&gt;Discount Interface&lt;/i&gt;" style="swimlane;fontStyle=0;childLayout=stackLayout;horizontal=1;startSize=26;fillColor=none;horizontalStack=0;resizeParent=1;resizeParentMax=0;resizeLast=0;collapsible=1;marginBottom=0;whiteSpace=wrap;html=1;" parent="1" vertex="1">
          <mxGeometry x="120" y="57" width="140" height="52" as="geometry" />
        </mxCell>
        <mxCell id="I_dA96z9081tKMaYeLAS-2" value="+onSale(String)" style="text;strokeColor=none;fillColor=none;align=left;verticalAlign=top;spacingLeft=4;spacingRight=4;overflow=hidden;rotatable=0;points=[[0,0.5],[1,0.5]];portConstraint=eastwest;whiteSpace=wrap;html=1;" parent="I_dA96z9081tKMaYeLAS-1" vertex="1">
          <mxGeometry y="26" width="140" height="26" as="geometry" />
        </mxCell>
        <mxCell id="I_dA96z9081tKMaYeLAS-5" value="" style="endArrow=open;endSize=12;dashed=1;html=1;rounded=0;exitX=0.5;exitY=0;exitDx=0;exitDy=0;" parent="1" source="VBHw-t9jweBzC9gY2SZ8-41" edge="1">
          <mxGeometry width="160" relative="1" as="geometry">
            <mxPoint x="180" y="190" as="sourcePoint" />
            <mxPoint x="190" y="110" as="targetPoint" />
          </mxGeometry>
        </mxCell>
        <mxCell id="abz6aUJouc7rrgcHi3pW-1" value="ShoppingCart" style="swimlane;fontStyle=1;align=center;verticalAlign=top;childLayout=stackLayout;horizontal=1;startSize=26;horizontalStack=0;resizeParent=1;resizeParentMax=0;resizeLast=0;collapsible=1;marginBottom=0;whiteSpace=wrap;html=1;" parent="1" vertex="1">
          <mxGeometry x="830" y="190" width="160" height="290" as="geometry" />
        </mxCell>
        <mxCell id="abz6aUJouc7rrgcHi3pW-2" value="&lt;div&gt;+Name(string)&lt;div&gt;+Description(string)&lt;/div&gt;&lt;div&gt;+Price(double)&lt;/div&gt;&lt;/div&gt;" style="text;strokeColor=none;fillColor=none;align=left;verticalAlign=top;spacingLeft=4;spacingRight=4;overflow=hidden;rotatable=0;points=[[0,0.5],[1,0.5]];portConstraint=eastwest;whiteSpace=wrap;html=1;" parent="abz6aUJouc7rrgcHi3pW-1" vertex="1">
          <mxGeometry y="26" width="160" height="64" as="geometry" />
        </mxCell>
        <mxCell id="abz6aUJouc7rrgcHi3pW-3" value="" style="line;strokeWidth=1;fillColor=none;align=left;verticalAlign=middle;spacingTop=-1;spacingLeft=3;spacingRight=3;rotatable=0;labelPosition=right;points=[];portConstraint=eastwest;strokeColor=inherit;" parent="abz6aUJouc7rrgcHi3pW-1" vertex="1">
          <mxGeometry y="90" width="160" height="8" as="geometry" />
        </mxCell>
        <mxCell id="abz6aUJouc7rrgcHi3pW-4" value="+ constructor(int, string, string, double, int)&lt;div&gt;+addItem()&lt;/div&gt;&lt;div&gt;+emptyCart()&lt;/div&gt;&lt;div&gt;+getName()&lt;/div&gt;&lt;div&gt;+setName()&lt;/div&gt;&lt;div&gt;+getDescription90&lt;/div&gt;&lt;div&gt;+setDescription()&lt;/div&gt;&lt;div&gt;+getDescription()&lt;/div&gt;&lt;div&gt;+getPrice()&lt;/div&gt;&lt;div&gt;+setPrice()&lt;/div&gt;&lt;div&gt;&lt;span style=&quot;background-color: initial;&quot;&gt;+toString()&lt;/span&gt;&lt;/div&gt;&lt;div&gt;&lt;br&gt;&lt;/div&gt;&lt;div&gt;&lt;br&gt;&lt;/div&gt;&lt;div&gt;&lt;br&gt;&lt;/div&gt;" style="text;strokeColor=none;fillColor=none;align=left;verticalAlign=top;spacingLeft=4;spacingRight=4;overflow=hidden;rotatable=0;points=[[0,0.5],[1,0.5]];portConstraint=eastwest;whiteSpace=wrap;html=1;" parent="abz6aUJouc7rrgcHi3pW-1" vertex="1">
          <mxGeometry y="98" width="160" height="192" as="geometry" />
        </mxCell>
        <mxCell id="abz6aUJouc7rrgcHi3pW-8" value="" style="endArrow=none;html=1;edgeStyle=orthogonalEdgeStyle;rounded=0;exitX=-0.032;exitY=0.797;exitDx=0;exitDy=0;exitPerimeter=0;entryX=1.051;entryY=0.802;entryDx=0;entryDy=0;entryPerimeter=0;" parent="1" source="abz6aUJouc7rrgcHi3pW-2" target="VBHw-t9jweBzC9gY2SZ8-46" edge="1">
          <mxGeometry relative="1" as="geometry">
            <mxPoint x="670" y="290" as="sourcePoint" />
            <mxPoint x="830" y="290" as="targetPoint" />
            <Array as="points">
              <mxPoint x="740" y="267" />
              <mxPoint x="740" y="150" />
              <mxPoint x="658" y="150" />
            </Array>
          </mxGeometry>
        </mxCell>
        <mxCell id="abz6aUJouc7rrgcHi3pW-10" value="child" style="edgeLabel;resizable=0;html=1;align=right;verticalAlign=bottom;" parent="abz6aUJouc7rrgcHi3pW-8" connectable="0" vertex="1">
          <mxGeometry x="1" relative="1" as="geometry">
            <mxPoint x="22" y="-3" as="offset" />
          </mxGeometry>
        </mxCell>
        <mxCell id="abz6aUJouc7rrgcHi3pW-11" value="parent" style="edgeLabel;html=1;align=center;verticalAlign=middle;resizable=0;points=[];" parent="abz6aUJouc7rrgcHi3pW-8" vertex="1" connectable="0">
          <mxGeometry x="-0.8926" y="-6" relative="1" as="geometry">
            <mxPoint y="-2" as="offset" />
          </mxGeometry>
        </mxCell>
        <mxCell id="abz6aUJouc7rrgcHi3pW-15" value="" style="endArrow=none;html=1;edgeStyle=orthogonalEdgeStyle;rounded=0;exitX=-0.027;exitY=0.253;exitDx=0;exitDy=0;exitPerimeter=0;entryX=1.045;entryY=0.64;entryDx=0;entryDy=0;entryPerimeter=0;" parent="1" source="abz6aUJouc7rrgcHi3pW-4" target="VBHw-t9jweBzC9gY2SZ8-52" edge="1">
          <mxGeometry relative="1" as="geometry">
            <mxPoint x="660" y="400" as="sourcePoint" />
            <mxPoint x="820" y="400" as="targetPoint" />
          </mxGeometry>
        </mxCell>
        <mxCell id="abz6aUJouc7rrgcHi3pW-16" value="parent" style="edgeLabel;resizable=0;html=1;align=left;verticalAlign=bottom;" parent="abz6aUJouc7rrgcHi3pW-15" connectable="0" vertex="1">
          <mxGeometry x="-1" relative="1" as="geometry">
            <mxPoint x="-33" as="offset" />
          </mxGeometry>
        </mxCell>
        <mxCell id="abz6aUJouc7rrgcHi3pW-17" value="child" style="edgeLabel;resizable=0;html=1;align=right;verticalAlign=bottom;" parent="abz6aUJouc7rrgcHi3pW-15" connectable="0" vertex="1">
          <mxGeometry x="1" relative="1" as="geometry">
            <mxPoint x="21" as="offset" />
          </mxGeometry>
        </mxCell>
        <mxCell id="abz6aUJouc7rrgcHi3pW-18" value="" style="endArrow=none;html=1;edgeStyle=orthogonalEdgeStyle;rounded=0;exitX=0;exitY=0.5;exitDx=0;exitDy=0;entryX=1;entryY=0.5;entryDx=0;entryDy=0;" parent="1" source="abz6aUJouc7rrgcHi3pW-4" target="VBHw-t9jweBzC9gY2SZ8-57" edge="1">
          <mxGeometry relative="1" as="geometry">
            <mxPoint x="650" y="570" as="sourcePoint" />
            <mxPoint x="810" y="570" as="targetPoint" />
          </mxGeometry>
        </mxCell>
        <mxCell id="abz6aUJouc7rrgcHi3pW-19" value="parent" style="edgeLabel;resizable=0;html=1;align=left;verticalAlign=bottom;" parent="abz6aUJouc7rrgcHi3pW-18" connectable="0" vertex="1">
          <mxGeometry x="-1" relative="1" as="geometry">
            <mxPoint x="-36" as="offset" />
          </mxGeometry>
        </mxCell>
        <mxCell id="abz6aUJouc7rrgcHi3pW-20" value="child" style="edgeLabel;resizable=0;html=1;align=right;verticalAlign=bottom;" parent="abz6aUJouc7rrgcHi3pW-18" connectable="0" vertex="1">
          <mxGeometry x="1" relative="1" as="geometry">
            <mxPoint x="24" as="offset" />
          </mxGeometry>
        </mxCell>
        <mxCell id="abz6aUJouc7rrgcHi3pW-22" value="Storefront Application" style="html=1;whiteSpace=wrap;" parent="1" vertex="1">
          <mxGeometry x="840" y="30" width="150" height="50" as="geometry" />
        </mxCell>
        <mxCell id="uxe0ZGxRKLmLf2dVNAL1-1" value="Classname" style="swimlane;fontStyle=0;childLayout=stackLayout;horizontal=1;startSize=26;fillColor=none;horizontalStack=0;resizeParent=1;resizeParentMax=0;resizeLast=0;collapsible=1;marginBottom=0;whiteSpace=wrap;html=1;" vertex="1" parent="1">
          <mxGeometry x="530" y="330" width="140" height="104" as="geometry" />
        </mxCell>
        <mxCell id="uxe0ZGxRKLmLf2dVNAL1-2" value="+ field: type" style="text;strokeColor=none;fillColor=none;align=left;verticalAlign=top;spacingLeft=4;spacingRight=4;overflow=hidden;rotatable=0;points=[[0,0.5],[1,0.5]];portConstraint=eastwest;whiteSpace=wrap;html=1;" vertex="1" parent="uxe0ZGxRKLmLf2dVNAL1-1">
          <mxGeometry y="26" width="140" height="26" as="geometry" />
        </mxCell>
        <mxCell id="uxe0ZGxRKLmLf2dVNAL1-3" value="+ field: type" style="text;strokeColor=none;fillColor=none;align=left;verticalAlign=top;spacingLeft=4;spacingRight=4;overflow=hidden;rotatable=0;points=[[0,0.5],[1,0.5]];portConstraint=eastwest;whiteSpace=wrap;html=1;" vertex="1" parent="uxe0ZGxRKLmLf2dVNAL1-1">
          <mxGeometry y="52" width="140" height="26" as="geometry" />
        </mxCell>
        <mxCell id="uxe0ZGxRKLmLf2dVNAL1-4" value="+ field: type" style="text;strokeColor=none;fillColor=none;align=left;verticalAlign=top;spacingLeft=4;spacingRight=4;overflow=hidden;rotatable=0;points=[[0,0.5],[1,0.5]];portConstraint=eastwest;whiteSpace=wrap;html=1;" vertex="1" parent="uxe0ZGxRKLmLf2dVNAL1-1">
          <mxGeometry y="78" width="140" height="26" as="geometry" />
        </mxCell>
        <mxCell id="uxe0ZGxRKLmLf2dVNAL1-5" value="Data Storage" style="swimlane;fontStyle=0;childLayout=stackLayout;horizontal=1;startSize=26;fillColor=none;horizontalStack=0;resizeParent=1;resizeParentMax=0;resizeLast=0;collapsible=1;marginBottom=0;whiteSpace=wrap;html=1;" vertex="1" parent="1">
          <mxGeometry x="110" y="560" width="260" height="110" as="geometry" />
        </mxCell>
        <mxCell id="uxe0ZGxRKLmLf2dVNAL1-7" value="product.txt&lt;div&gt;&lt;br&gt;&lt;/div&gt;&lt;div&gt;prodArray(&lt;span style=&quot;background-color: initial;&quot;&gt;Name, Description, Price, Quantity)&lt;/span&gt;&lt;div&gt;&lt;br&gt;&lt;/div&gt;&lt;/div&gt;" style="text;strokeColor=none;fillColor=none;align=left;verticalAlign=top;spacingLeft=4;spacingRight=4;overflow=hidden;rotatable=0;points=[[0,0.5],[1,0.5]];portConstraint=eastwest;whiteSpace=wrap;html=1;" vertex="1" parent="uxe0ZGxRKLmLf2dVNAL1-5">
          <mxGeometry y="26" width="260" height="84" as="geometry" />
        </mxCell>
      </root>
    </mxGraphModel>
  </diagram>
</mxfile>
